# xmcd
#
# Track frame offsets:
#       150
#       24477
#       46597
#       68887
#       84917
#       105400
#       120730
#       137640
#       162005
#
# Disc length: 2482 seconds
#
# Revision: 2
# Processed by: cddbd v1.4PL0 Copyright (c) Steve Scherf et al.
# Submitted via: WhereIsIt 3.25
#
DISCID=6309b009
DTITLE=Rita MacNeil - Reason To Believe
DYEAR=1900
DGENRE=
TTITLE0=Walk On Through
TTITLE1=Two Steps From Broken
TTITLE2=City Child
TTITLE3=Doors of The Cemetery
TTITLE4=Reason To Believe
TTITLE5=When The Loving Is Through
TTITLE6=The Music's Going Around Again
TTITLE7=Working Man
TTITLE8=Good Friends
EXTD=
EXTT0=
EXTT1=
EXTT2=
EXTT3=
EXTT4=
EXTT5=
EXTT6=
EXTT7=
EXTT8=
PLAYORDER=
